<?xml version="1.0" encoding="UTF-8"?>
<svg version="1.1" xmlns="http://www.w3.org/2000/svg" width="312" height="83">
<path d="M0 0 C6.023725 3.6614799 8.14638724 8.30690566 10 15 C10.34842303 17.09851733 10.65952945 19.20349408 10.9375 21.3125 C12.39763927 32.0921369 16.4841306 41.33456544 23 50 C21.25773993 53.79844086 19.92013204 55.29559476 16 57 C11.26027039 57.52663662 9.05991684 57.54034976 4.8125 55.375 C-5.33623217 46.8049595 -7.85577708 34.52576609 -11 22 C-11.8371781 27.81373681 -12.15417928 33.44260086 -12.125 39.3125 C-12.12886719 40.10978516 -12.13273437 40.90707031 -12.13671875 41.72851562 C-12.13110055 45.06853439 -12.06322258 47.81033226 -11 51 C-11.66 51 -12.32 51 -13 51 C-13 51.66 -13 52.32 -13 53 C-21.10943812 57.32060228 -21.10943812 57.32060228 -25.234375 56.62109375 C-31.17736026 53.86843197 -35.68053029 49.27005177 -38.13671875 43.18286133 C-39.13992782 39.99412534 -40.03044194 36.79677348 -40.875 33.5625 C-41.18179688 32.44939453 -41.48859375 31.33628906 -41.8046875 30.18945312 C-42.55338039 27.46374307 -43.28452226 24.73458018 -44 22 C-45.03042947 25.44698827 -45.19794703 28.70925282 -45.31640625 32.296875 C-45.37924805 34.10478516 -45.37924805 34.10478516 -45.44335938 35.94921875 C-45.48267578 37.20347656 -45.52199219 38.45773438 -45.5625 39.75 C-45.62727539 41.65458984 -45.62727539 41.65458984 -45.69335938 43.59765625 C-45.79939722 46.73166365 -45.90146058 49.86574933 -46 53 C-47.65 53.66 -49.3 54.32 -51 55 C-51 55.66 -51 56.32 -51 57 C-54.3 57 -57.6 57 -61 57 C-61 56.34 -61 55.68 -61 55 C-61.91084351 54.6119519 -61.91084351 54.6119519 -62.84008789 54.21606445 C-68.00424704 51.30856171 -70.09236865 45.248518 -71.66015625 39.80078125 C-72.14056242 37.97471419 -72.60789644 36.14516107 -73.0625 34.3125 C-74.9932203 25.87802371 -74.9932203 25.87802371 -80 19 C-83.13863704 18.11406002 -83.13863704 18.11406002 -86 18 C-84.02366481 13.14899544 -80.83878466 9.87941875 -76.125 7.625 C-72.30435 6.86087 -69.76629152 6.97282958 -66 8 C-63.1875 10.4375 -63.1875 10.4375 -61 13 C-60.34 13.66 -59.68 14.32 -59 15 C-58.54560547 14.20335937 -58.54560547 14.20335937 -58.08203125 13.390625 C-54.70499669 7.69642519 -51.23828476 3.61785164 -45 1 C-40.21301739 0.45067413 -35.61419862 0.41614092 -31.0625 2.0625 C-28.2224101 4.73046324 -26.7678902 7.52969701 -25 11 C-24.38125 10.43732422 -24.38125 10.43732422 -23.75 9.86328125 C-16.62137625 3.54617494 -9.93203086 -2.35675309 0 0 Z " fill="#53673A" transform="translate(98,19)"/>
<path d="M0 0 C2.8125 2.4375 2.8125 2.4375 5 5 C5.66 5.66 6.32 6.32 7 7 C7.45375 6.34 7.9075 5.68 8.375 5 C8.91125 4.34 9.4475 3.68 10 3 C16.98714653 3 16.98714653 3 19.5390625 5.51953125 C20.89881852 7.32367681 22.09109696 8.9289672 23 11 C22.67 11.99 22.34 12.98 22 14 C20.95836118 17.44307786 20.80210778 20.70759293 20.68359375 24.296875 C20.62075195 26.10478516 20.62075195 26.10478516 20.55664062 27.94921875 C20.51732422 29.20347656 20.47800781 30.45773438 20.4375 31.75 C20.37272461 33.65458984 20.37272461 33.65458984 20.30664062 35.59765625 C20.20060278 38.73166365 20.09853942 41.86574933 20 45 C18.35 45.66 16.7 46.32 15 47 C15 47.66 15 48.32 15 49 C11.7 49 8.4 49 5 49 C5 48.34 5 47.68 5 47 C4.08915649 46.6119519 4.08915649 46.6119519 3.15991211 46.21606445 C-2.00424704 43.30856171 -4.09236865 37.248518 -5.66015625 31.80078125 C-6.14056242 29.97471419 -6.60789644 28.14516107 -7.0625 26.3125 C-8.9932203 17.87802371 -8.9932203 17.87802371 -14 11 C-17.13863704 10.11406002 -17.13863704 10.11406002 -20 10 C-18.02366481 5.14899544 -14.83878466 1.87941875 -10.125 -0.375 C-6.30435 -1.13913 -3.76629152 -1.02717042 0 0 Z " fill="#54683B" transform="translate(32,27)"/>
<path d="M0 0 C3.8815258 3.51763276 5.34356908 7.29472506 6.17578125 12.3828125 C6.36462891 13.445 6.55347656 14.5071875 6.74804688 15.6015625 C7.12016964 17.80082092 7.48492858 20.00133982 7.84179688 22.203125 C9.25470596 30.04736944 11.90199113 36.0152844 16 42.8125 C17.83212989 45.99654771 18 46.89737627 18 50.8125 C9.89056188 55.13310228 9.89056188 55.13310228 5.765625 54.43359375 C0.08330339 51.80166572 -4.49040608 47.23690219 -7.02685547 41.4831543 C-7.88211873 38.94407589 -8.61919288 36.40033157 -9.3125 33.8125 C-9.56322266 32.94882812 -9.81394531 32.08515625 -10.07226562 31.1953125 C-11.42887323 26.4089972 -12.30110224 21.74222527 -13 16.8125 C-14.53253157 13.38789678 -14.53253157 13.38789678 -17 10.8125 C-21.08682027 9.57195724 -21.08682027 9.57195724 -25 10.8125 C-24.77854028 6.93695494 -24.06286207 5.8725682 -21.1875 3.125 C-14.61967931 -1.63988952 -7.80674349 -3.0901693 0 0 Z " fill="#4D6333" transform="translate(67,21.1875)"/>
<path d="M0 0 C12.21 0 24.42 0 37 0 C37 1.32 37 2.64 37 4 C34.36 4 31.72 4 29 4 C29 11.59 29 19.18 29 27 C27.35 27 25.7 27 24 27 C24 19.41 24 11.82 24 4 C17.73 4 11.46 4 5 4 C5 6.31 5 8.62 5 11 C8.3 11 11.6 11 15 11 C15 12.32 15 13.64 15 15 C11.7 15 8.4 15 5 15 C5 17.64 5 20.28 5 23 C8.63 23 12.26 23 16 23 C16 24.32 16 25.64 16 27 C10.72 27 5.44 27 0 27 C0 18.09 0 9.18 0 0 Z " fill="#8C8C8C" transform="translate(165,25)"/>
<path d="M0 0 C7.98971722 0 7.98971722 0 10.53515625 2.51953125 C11.89839562 4.32326022 13.09040163 5.92738281 14 8 C13.67 8.99 13.34 9.98 13 11 C11.95836118 14.44307786 11.80210778 17.70759293 11.68359375 21.296875 C11.64169922 22.50214844 11.59980469 23.70742188 11.55664062 24.94921875 C11.51732422 26.20347656 11.47800781 27.45773438 11.4375 28.75 C11.39431641 30.01972656 11.35113281 31.28945313 11.30664062 32.59765625 C11.20060278 35.73166365 11.09853942 38.86574933 11 42 C3.98210964 33.43721104 -0.09117689 23.69225697 -2.125 12.875 C-2.33684937 11.81007324 -2.33684937 11.81007324 -2.55297852 10.72363281 C-3.10465297 7.30496625 -3.09391381 5.22340986 -1.7421875 2.0078125 C-1.16726562 1.34523438 -0.59234375 0.68265625 0 0 Z " fill="#BCDA8C" transform="translate(41,30)"/>
<path d="M0 0 C5 0 5 0 6.4855957 1.37695312 C6.87835693 2.00537109 7.27111816 2.63378906 7.67578125 3.28125 C8.11083984 3.95800781 8.54589844 4.63476562 8.99414062 5.33203125 C9.42919922 6.04746094 9.86425781 6.76289063 10.3125 7.5 C10.76689453 8.21542969 11.22128906 8.93085937 11.68945312 9.66796875 C12.80881194 11.43537741 13.90652207 13.21646319 15 15 C15.33 10.05 15.66 5.1 16 0 C17.65 0 19.3 0 21 0 C21 8.91 21 17.82 21 27 C19.35 27 17.7 27 16 27 C14.0859375 24.76953125 14.0859375 24.76953125 12.375 21.8125 C11.80523437 20.84957031 11.23546875 19.88664062 10.6484375 18.89453125 C10.10445312 17.93933594 9.56046875 16.98414062 9 16 C8.01 14.35 7.02 12.7 6 11 C5.67 16.28 5.34 21.56 5 27 C3.35 27 1.7 27 0 27 C0 18.09 0 9.18 0 0 Z " fill="#717171" transform="translate(140,25)"/>
<path d="M0 0 C0.33 0.66 0.66 1.32 1 2 C1.763125 2.103125 2.52625 2.20625 3.3125 2.3125 C6.96440335 3.24670783 7.97634839 4.89224931 10 8 C11.08692517 11.1082246 10.9242568 12.98212227 10.0625 16.125 C8.92366469 21.25745373 8.80364322 26.20574753 8.8125 31.4375 C8.81193604 32.2310791 8.81137207 33.0246582 8.81079102 33.84228516 C8.84151503 37.13858296 8.95113295 39.85339885 10 43 C9.34 43 8.68 43 8 43 C7.35011813 41.66413171 6.70032671 40.3282194 6.05078125 38.9921875 C5.00110432 36.93474911 5.00110432 36.93474911 3.60546875 34.8203125 C-0.1131997 28.77629948 -1.9878425 22.94560164 -3.4375 16.0625 C-3.61337646 15.23339111 -3.78925293 14.40428223 -3.97045898 13.55004883 C-5.30883755 6.64367676 -5.30883755 6.64367676 -4 3 C-1.9375 1.25 -1.9375 1.25 0 0 Z " fill="#BAD78B" transform="translate(77,27)"/>
<path d="M0 0 C4.19043552 2.49472962 6.61973699 4.81695953 8.125 9.5 C7.97632583 13.66287671 7.5083887 15.65548173 5 19 C2.42460097 20.69571217 0.0595893 21.6006786 -3 22 C-7.08236752 20.91136866 -9.37448346 19.56296489 -12.5 16.75 C-14 14 -14 14 -14.0625 10.5 C-12.18897848 4.32839968 -6.82088976 -1.24016178 0 0 Z " fill="#C1DD92" transform="translate(18,4)"/>
<path d="M0 0 C2.09651475 3.45308311 2.09651475 3.45308311 1.625 6.125 C1.41875 6.74375 1.2125 7.3625 1 8 C1 8.66 1 9.32 1 10 C0.01 10 -0.98 10 -2 10 C-2.495 7.525 -2.495 7.525 -3 5 C-3.66 5 -4.32 5 -5 5 C-5.33 5.99 -5.66 6.98 -6 8 C-5.01 7.67 -4.02 7.34 -3 7 C-3 7.99 -3 8.98 -3 10 C-3.804375 9.814375 -4.60875 9.62875 -5.4375 9.4375 C-6.283125 9.293125 -7.12875 9.14875 -8 9 C-8.33 9.33 -8.66 9.66 -9 10 C-10.66605828 10.0450286 -12.33378384 10.03874921 -14 10 C-15.32 10 -16.64 10 -18 10 C-18.495 8.515 -18.495 8.515 -19 7 C-19.33 7.99 -19.66 8.98 -20 10 C-21.65 10 -23.3 10 -25 10 C-25.33 8.35 -25.66 6.7 -26 5 C-26.33 6.65 -26.66 8.3 -27 10 C-31 10 -31 10 -33.4375 9.4375 C-36.02702125 8.83422407 -36.02702125 8.83422407 -38.6875 9.5625 C-39.8321875 9.7790625 -39.8321875 9.7790625 -41 10 C-41.66 9.34 -42.32 8.68 -43 8 C-43.33 8.66 -43.66 9.32 -44 10 C-46.64 10 -49.28 10 -52 10 C-52.66 8.68 -53.32 7.36 -54 6 C-52.89672852 4.02441406 -52.89672852 4.02441406 -51 2 C-48.12084961 1.54589844 -48.12084961 1.54589844 -44.65234375 1.609375 C-42.78545898 1.62871094 -42.78545898 1.62871094 -40.88085938 1.6484375 C-39.57955078 1.68195312 -38.27824219 1.71546875 -36.9375 1.75 C-34.97973633 1.77707031 -34.97973633 1.77707031 -32.98242188 1.8046875 C-29.65432581 1.85299579 -26.32752641 1.92318593 -23 2 C-22.34 2 -21.68 2 -21 2 C-13 2 -13 2 -10.25 2.6875 C-5.93819713 3.10209643 -3.83764946 1.91882473 0 0 Z M-39 4 C-39.33 5.32 -39.66 6.64 -40 8 C-39.01 7.67 -38.02 7.34 -37 7 C-37.33 6.01 -37.66 5.02 -38 4 C-38.33 4 -38.66 4 -39 4 Z M-33 4 C-33.33 5.32 -33.66 6.64 -34 8 C-33.01 7.01 -32.02 6.02 -31 5 C-31.66 4.67 -32.32 4.34 -33 4 Z " fill="#7E7E7E" transform="translate(283,62)"/>
<path d="M0 0 C11.50342364 -0.12503721 11.50342364 -0.12503721 14.171875 0.546875 C16.26899849 1.20352618 16.26899849 1.20352618 19.5 0.3125 C23 0 23 0 25.203125 1.46484375 C27.69179612 4.9760341 27.43966698 8.12109585 27.25 12.25 C27.23195312 12.99507812 27.21390625 13.74015625 27.1953125 14.5078125 C27.14835649 16.33909701 27.07661652 18.16971649 27 20 C25.68 20 24.36 20 23 20 C22.93941406 19.08476563 22.87882812 18.16953125 22.81640625 17.2265625 C22.73261719 16.03804687 22.64882812 14.84953125 22.5625 13.625 C22.48128906 12.44164062 22.40007812 11.25828125 22.31640625 10.0390625 C22.18915064 7.08481099 22.18915064 7.08481099 21 5 C19.68 5.33 18.36 5.66 17 6 C16.67 10.62 16.34 15.24 16 20 C14.35 20 12.7 20 11 20 C10.67 15.05 10.34 10.1 10 5 C8.68 5 7.36 5 6 5 C4.58365167 7.83269666 4.6536995 10.47466438 4.4375 13.625 C4.35371094 14.81351563 4.26992187 16.00203125 4.18359375 17.2265625 C4.12300781 18.14179687 4.06242188 19.05703125 4 20 C2.68 20 1.36 20 0 20 C0 13.4 0 6.8 0 0 Z " fill="#494949" transform="translate(202,32)"/>
<path d="M0 0 C1.32 0.33 2.64 0.66 4 1 C4 10.24 4 19.48 4 29 C2.35 28.67 0.7 28.34 -1 28 C-1.99 28.37125 -2.98 28.7425 -4 29.125 C-7 30 -7 30 -9.6875 28.9375 C-12.35750488 26.70046888 -13.70044835 25.24887912 -15 22 C-15 17.05041562 -14.73148415 15.00317827 -11.8125 11 C-8.51905291 8.65799318 -6.95430726 8.47275903 -3 9 C-2.34 9.33 -1.68 9.66 -1 10 C-1.01160156 9.36191406 -1.02320313 8.72382813 -1.03515625 8.06640625 C-1.04417969 7.24011719 -1.05320312 6.41382813 -1.0625 5.5625 C-1.07410156 4.73878906 -1.08570313 3.91507813 -1.09765625 3.06640625 C-1 1 -1 1 0 0 Z M-8.75 14.125 C-10.55775998 16.83663997 -10.33220081 18.81087222 -10 22 C-9.01 23.485 -9.01 23.485 -8 25 C-5.5 25.41666667 -5.5 25.41666667 -3 25 C-0.84294485 23.2435669 -0.84294485 23.2435669 -0.734375 21.125 C-0.73953125 20.42375 -0.7446875 19.7225 -0.75 19 C-0.74484375 18.29875 -0.7396875 17.5975 -0.734375 16.875 C-0.84294485 14.7564331 -0.84294485 14.7564331 -3 13 C-6.78595012 12.63949494 -6.78595012 12.63949494 -8.75 14.125 Z " fill="#646464" transform="translate(266,23)"/>
<path d="M0 0 C0.99 0 1.98 0 3 0 C3 0.99 3 1.98 3 3 C3.97582031 2.91621094 4.95164063 2.83242188 5.95703125 2.74609375 C7.22933594 2.64425781 8.50164062 2.54242188 9.8125 2.4375 C11.07707031 2.33308594 12.34164062 2.22867188 13.64453125 2.12109375 C17 2 17 2 20 3 C24.36855204 4.29875871 26.75808925 3.44405472 31 2 C33.375 2.375 33.375 2.375 35 3 C35 3.66 35 4.32 35 5 C34.34 5 33.68 5 33 5 C33.495 7.97 33.495 7.97 34 11 C33.278125 10.814375 32.55625 10.62875 31.8125 10.4375 C29.07999119 9.84542328 29.07999119 9.84542328 26.71020508 10.46655273 C23.6832639 11.06234289 20.90831412 11.11284884 17.82421875 11.09765625 C16.66728516 11.09443359 15.51035156 11.09121094 14.31835938 11.08789062 C13.12017578 11.07951172 11.92199219 11.07113281 10.6875 11.0625 C9.46998047 11.05798828 8.25246094 11.05347656 6.99804688 11.04882812 C3.99864774 11.03706578 0.99934911 11.02062826 -2 11 C-2.33 8.36 -2.66 5.72 -3 3 C-2.34 3 -1.68 3 -1 3 C-0.67 2.01 -0.34 1.02 0 0 Z M1 5 C2 7 2 7 2 7 Z M13 5 C13 8 13 8 13 8 Z M17 5 C16.67 6.32 16.34 7.64 16 9 C16.66 7.68 17.32 6.36 18 5 C17.67 5 17.34 5 17 5 Z M28 6 C28.66 6.66 29.32 7.32 30 8 C30 7.34 30 6.68 30 6 C29.34 6 28.68 6 28 6 Z " fill="#757575" transform="translate(154,61)"/>
<path d="M0 0 C2.9375 2.0625 2.9375 2.0625 5 5 C5.3125 8.8125 5.3125 8.8125 5 12 C-0.94 12.495 -0.94 12.495 -7 13 C-6.67 13.66 -6.34 14.32 -6 15 C-3.64400765 15.46751788 -3.64400765 15.46751788 -0.9375 15.625 C0.44115234 15.73714844 0.44115234 15.73714844 1.84765625 15.8515625 C2.55792969 15.90054688 3.26820313 15.94953125 4 16 C3.67 17.32 3.34 18.64 3 20 C-5.9752527 20.62739631 -5.9752527 20.62739631 -10.0625 18.125 C-12.54547739 15.40173448 -12.95520643 14.46585316 -13.3125 10.75 C-12.94713599 6.36563187 -11.73973233 4.38437523 -9 1 C-5.86128812 -0.56935594 -3.46144178 -0.35201103 0 0 Z M-6 4 C-6.33 4.99 -6.66 5.98 -7 7 C-4.69 7 -2.38 7 0 7 C-0.33 6.01 -0.66 5.02 -1 4 C-2.65 4 -4.3 4 -6 4 Z " fill="#666666" transform="translate(245,32)"/>
<path d="M0 0 C2.17578125 1.11328125 2.17578125 1.11328125 4 3 C4.609375 5.99609375 4.609375 5.99609375 4.75 9.4375 C4.80671875 10.57058594 4.8634375 11.70367187 4.921875 12.87109375 C4.98119346 15.24679808 5 17.62355523 5 20 C-4.81480455 21.42667036 -4.81480455 21.42667036 -9.125 19.875 C-11 18 -11 18 -12.0625 15.625 C-12 13 -12 13 -10.5 10.25 C-7.36325249 7.42692724 -5.1450081 7.23913508 -1 7 C-1 6.01 -1 5.02 -1 4 C-5.455 4.495 -5.455 4.495 -10 5 C-10 3.68 -10 2.36 -10 1 C-6.43528609 -0.18823797 -3.7441664 -0.26274852 0 0 Z M-5 11 C-5.99 12.485 -5.99 12.485 -7 14 C-6.01 15.485 -6.01 15.485 -5 17 C-3.68 16.67 -2.36 16.34 -1 16 C-0.67 14.35 -0.34 12.7 0 11 C-2.41619823 10.74969023 -2.41619823 10.74969023 -5 11 Z " fill="#3E3E3E" transform="translate(293,32)"/>
<path d="M0 0 C0.66 0 1.32 0 2 0 C2.07622858 3.96388638 1.9681648 7.1273408 1 11 C-3.95 11 -8.9 11 -14 11 C-14.33 10.34 -14.66 9.68 -15 9 C-16.98 9.99 -16.98 9.99 -19 11 C-18.67 8.36 -18.34 5.72 -18 3 C-12.33333333 3 -6.66666667 3 -1 3 C-0.67 2.01 -0.34 1.02 0 0 Z M-2 6 C-1 9 -1 9 -1 9 Z " fill="#6E6E6E" transform="translate(210,61)"/>
<path d="M0 0 C4.29 0 8.58 0 13 0 C13 0.66 13 1.32 13 2 C9.7 2 6.4 2 3 2 C3 4.97 3 7.94 3 11 C6.3 11 9.6 11 13 11 C13 11.66 13 12.32 13 13 C9.7 13 6.4 13 3 13 C3 16.3 3 19.6 3 23 C6.63 23 10.26 23 14 23 C14 23.66 14 24.32 14 25 C9.38 25 4.76 25 0 25 C0 16.75 0 8.5 0 0 Z " fill="#111111" transform="translate(166,26)"/>
<path d="M0 0 C1.65 0 3.3 0 5 0 C5 8.91 5 17.82 5 27 C3.35 27 1.7 27 0 27 C0 18.09 0 9.18 0 0 Z " fill="#4F4F4F" transform="translate(131,25)"/>
<path d="M0 0 C0 0.99 0 1.98 0 3 C3.32534757 4.10844919 5.62182575 3.84454356 9 3 C9.79953138 6.28696233 10.09658936 7.71023192 9 11 C6.03 11 3.06 11 0 11 C0 9.35 0 7.7 0 6 C-0.66 7.65 -1.32 9.3 -2 11 C-3.65 11 -5.3 11 -7 11 C-8.48235294 5.07058824 -8.48235294 5.07058824 -7 2 C-4.55683729 0.74709605 -2.75474605 0 0 0 Z M-5 5 C-4.67 6.32 -4.34 7.64 -4 9 C-3.67 7.68 -3.34 6.36 -3 5 C-3.66 5 -4.32 5 -5 5 Z " fill="#767676" transform="translate(138,61)"/>
<path d="M0 0 C6.27 0 12.54 0 19 0 C19 0.66 19 1.32 19 2 C16.36 2 13.72 2 11 2 C11 9.59 11 17.18 11 25 C10.01 25 9.02 25 8 25 C6.37461945 21.7492389 6.85722105 18.19264307 6.875 14.625 C6.87113281 13.85671875 6.86726562 13.0884375 6.86328125 12.296875 C6.86457031 11.55179688 6.86585938 10.80671875 6.8671875 10.0390625 C6.86831543 9.36053223 6.86944336 8.68200195 6.87060547 7.98291016 C7.00733166 5.88764583 7.43229045 4.01770852 8 2 C5.36 2 2.72 2 0 2 C0 1.34 0 0.68 0 0 Z " fill="#101010" transform="translate(182,26)"/>
<path d="M0 0 C0 0.66 0 1.32 0 2 C-0.66 2 -1.32 2 -2 2 C-1.67 3.98 -1.34 5.96 -1 8 C-1.721875 7.814375 -2.44375 7.62875 -3.1875 7.4375 C-6.18673388 6.97095251 -8.06141683 7.35494516 -11 8 C-12.9996441 8.03772913 -15.00054061 8.04649906 -17 8 C-17.6875 6.25 -17.6875 6.25 -18 4 C-16.5625 1.75 -16.5625 1.75 -15 0 C-13.948125 0.309375 -13.948125 0.309375 -12.875 0.625 C-8.06720242 1.25210403 -4.74268648 -1.82411019 0 0 Z M-7 3 C-6.34 3.66 -5.68 4.32 -5 5 C-5 4.34 -5 3.68 -5 3 C-5.66 3 -6.32 3 -7 3 Z " fill="#707070" transform="translate(189,64)"/>
<path d="M0 0 C1.65 0 3.3 0 5 0 C5 6.6 5 13.2 5 20 C3.35 20 1.7 20 0 20 C0 13.4 0 6.8 0 0 Z " fill="#474747" transform="translate(274,32)"/>
<path d="M0 0 C0.66 0 1.32 0 2 0 C2 0.99 2 1.98 2 3 C7.1693489 2.59443869 7.1693489 2.59443869 12 1 C12.99088067 4.08273985 12.92482533 5.91724891 12 9 C12 9.66 12 10.32 12 11 C9.69 11 7.38 11 5 11 C5 9.35 5 7.7 5 6 C4.34 7.65 3.68 9.3 3 11 C1.35 11 -0.3 11 -2 11 C-1.85957123 9.35369672 -1.71250671 7.70795821 -1.5625 6.0625 C-1.48128906 5.14597656 -1.40007812 4.22945313 -1.31640625 3.28515625 C-1 1 -1 1 0 0 Z M1 3 C2 7 2 7 2 7 Z " fill="#767676" transform="translate(217,61)"/>
<path d="M0 0 C0.66 0 1.32 0 2 0 C2.125 7.625 2.125 7.625 1 11 C-2.96 11 -6.92 11 -11 11 C-11.66 9.68 -12.32 8.36 -13 7 C-12.01 5.68 -11.02 4.36 -10 3 C-9.278125 3.185625 -8.55625 3.37125 -7.8125 3.5625 C-4.87173027 4.01995307 -2.85896942 3.73516357 0 3 C0 2.01 0 1.02 0 0 Z M-2 5 C-2.33 6.32 -2.66 7.64 -3 9 C-2.34 8.67 -1.68 8.34 -1 8 C-1.33 7.01 -1.66 6.02 -2 5 Z " fill="#878787" transform="translate(297,61)"/>
<path d="M0 0 C0.99 0 1.98 0 3 0 C3 8.58 3 17.16 3 26 C2.34 26 1.68 26 1 26 C1 25.01 1 24.02 1 23 C0.34 22.67 -0.32 22.34 -1 22 C-1.4140625 19.27734375 -1.4140625 19.27734375 -1.625 15.9375 C-1.69976562 14.83277344 -1.77453125 13.72804688 -1.8515625 12.58984375 C-1.90054687 11.73519531 -1.94953125 10.88054688 -2 10 C-1.34 10 -0.68 10 0 10 C0 6.7 0 3.4 0 0 Z " fill="#0A0A0A" transform="translate(266,25)"/>
<path d="M0 0 C-0.99 0.66 -1.98 1.32 -3 2 C-2.34 2.66 -1.68 3.32 -1 4 C-1.804375 4.12375 -2.60875 4.2475 -3.4375 4.375 C-4.7059375 4.684375 -4.7059375 4.684375 -6 5 C-6.33 5.66 -6.66 6.32 -7 7 C-4.36 6.67 -1.72 6.34 1 6 C1 6.99 1 7.98 1 9 C-2.63 9.33 -6.26 9.66 -10 10 C-10.33 11.32 -10.66 12.64 -11 14 C-11.66 14 -12.32 14 -13 14 C-13.4560284 8.29964499 -12.60412752 5.45215753 -9 1 C-6.04335481 -0.4783226 -3.25770263 -0.06032783 0 0 Z " fill="#656565" transform="translate(245,32)"/>
<path d="M0 0 C0.33 0 0.66 0 1 0 C1 9.24 1 18.48 1 28 C-0.65 27.67 -2.3 27.34 -4 27 C-5.010625 27.350625 -6.02125 27.70125 -7.0625 28.0625 C-10 29 -10 29 -12.375 28.125 C-12.91125 27.75375 -13.4475 27.3825 -14 27 C-12.68 26.67 -11.36 26.34 -10 26 C-10.66 25.67 -11.32 25.34 -12 25 C-11.67 24.34 -11.34 23.68 -11 23 C-10.236875 23.0825 -9.47375 23.165 -8.6875 23.25 C-5.85416667 23.29166667 -5.85416667 23.29166667 -4.1875 21 C-3.795625 20.34 -3.40375 19.68 -3 19 C-2.67 21.64 -2.34 24.28 -2 27 C-1.34 27 -0.68 27 0 27 C0 18.09 0 9.18 0 0 Z " fill="#909090" transform="translate(269,24)"/>
<path d="M0 0 C2.09651475 3.45308311 2.09651475 3.45308311 1.625 6.125 C1.41875 6.74375 1.2125 7.3625 1 8 C1 8.66 1 9.32 1 10 C0.01 10 -0.98 10 -2 10 C-2.33 8.35 -2.66 6.7 -3 5 C-3.66 5 -4.32 5 -5 5 C-5.33 5.99 -5.66 6.98 -6 8 C-5.01 7.67 -4.02 7.34 -3 7 C-3 7.99 -3 8.98 -3 10 C-7.59074074 9.5037037 -7.59074074 9.5037037 -9.625 7 C-10.305625 6.01 -10.305625 6.01 -11 5 C-11.99 4.67 -12.98 4.34 -14 4 C-13.67 3.34 -13.34 2.68 -13 2 C-12.154375 2.226875 -11.30875 2.45375 -10.4375 2.6875 C-5.99422997 3.09143364 -3.94604801 1.97302401 0 0 Z " fill="#7C7C7C" transform="translate(283,62)"/>
<path d="M0 0 C0 0.66 0 1.32 0 2 C2.31 2 4.62 2 7 2 C6.25 7.75 6.25 7.75 4 10 C1.5 9.875 1.5 9.875 -1 9 C-2.3125 6.9375 -2.3125 6.9375 -3 5 C-2.67 6.65 -2.34 8.3 -2 10 C0.31 10.33 2.62 10.66 5 11 C3.3125 12.125 3.3125 12.125 1 13 C-2.80102261 12.00449408 -3.77231678 11.34152484 -6 8 C-5.78241359 5.0988479 -5.37826195 3.47693899 -3.5625 1.1875 C-2 0 -2 0 0 0 Z M1 3 C0.01 4.485 0.01 4.485 -1 6 C-0.01 7.485 -0.01 7.485 1 9 C2.32 8.67 3.64 8.34 5 8 C5.33 6.35 5.66 4.7 6 3 C3.58380177 2.74969023 3.58380177 2.74969023 1 3 Z " fill="#787878" transform="translate(287,40)"/>
<path d="M0 0 C0.99 0 1.98 0 3 0 C3 8.25 3 16.5 3 25 C2.67 25 2.34 25 2 25 C-0.24105897 19.61792923 -0.23693988 14.84254456 -0.125 9.125 C-0.11597656 8.24585938 -0.10695312 7.36671875 -0.09765625 6.4609375 C-0.07424577 4.3071729 -0.0383801 2.15354986 0 0 Z " fill="#0C0C0C" transform="translate(157,26)"/>
<path d="M0 0 C3.71599191 -0.20086443 4.77208445 -0.1519437 8 2 C9.32 2 10.64 2 12 2 C12 3.98 12 5.96 12 8 C9 8 6 8 3 8 C3 6.35 3 4.7 3 3 C2.01 3.33 1.02 3.66 0 4 C0 2.68 0 1.36 0 0 Z " fill="#6D6D6D" transform="translate(262,64)"/>
<path d="M0 0 C1.65 0 3.3 0 5 0 C5 0.99 5 1.98 5 3 C4.01 3 3.02 3 2 3 C2 10.26 2 17.52 2 25 C1.34 25 0.68 25 0 25 C0 16.75 0 8.5 0 0 Z " fill="#0A0A0A" transform="translate(141,26)"/>
<path d="M0 0 C0.66 0.66 1.32 1.32 2 2 C1.34 2 0.68 2 0 2 C0.33 3.98 0.66 5.96 1 8 C-1.31 8 -3.62 8 -6 8 C-6 7.67 -6 7.34 -6 7 C-4.35 7 -2.7 7 -1 7 C-1 6.01 -1 5.02 -1 4 C-5.455 4.495 -5.455 4.495 -10 5 C-10 3.68 -10 2.36 -10 1 C-6.47940432 -0.17353189 -3.693507 -0.20146402 0 0 Z " fill="#838383" transform="translate(293,32)"/>
<path d="M0 0 C0.66 0 1.32 0 2 0 C2.125 6.625 2.125 6.625 1 10 C0.34 10 -0.32 10 -1 10 C-1.33 9.34 -1.66 8.68 -2 8 C-2.66 8.66 -3.32 9.32 -4 10 C-4.33 9.34 -4.66 8.68 -5 8 C-5.66 8 -6.32 8 -7 8 C-6.67 6.35 -6.34 4.7 -6 3 C-4.35 3 -2.7 3 -1 3 C-0.67 2.01 -0.34 1.02 0 0 Z " fill="#5A5A5A" transform="translate(210,61)"/>
<path d="M0 0 C3.375 -0.125 3.375 -0.125 7 0 C9 2 9 2 9.125 5.625 C9.08375 6.73875 9.0425 7.8525 9 9 C4.71 9 0.42 9 -4 9 C-4 8.67 -4 8.34 -4 8 C-0.7 8 2.6 8 6 8 C4.98839152 3.60685207 4.98839152 3.60685207 1.875 0.625 C1.25625 0.41875 0.6375 0.2125 0 0 Z " fill="#222222" transform="translate(240,33)"/>
<path d="M0 0 C1.65 0.33 3.3 0.66 5 1 C4.67 3.31 4.34 5.62 4 8 C2.35 8 0.7 8 -1 8 C-1.93065133 5.39417629 -2.14917407 4.35801776 -1.0625 1.75 C-0.711875 1.1725 -0.36125 0.595 0 0 Z " fill="#656565" transform="translate(143,64)"/>
<path d="M0 0 C-0.33 0.66 -0.66 1.32 -1 2 C-2.10540926 4.78918149 -2.10540926 4.78918149 -2 7 C-3.65 6.67 -5.3 6.34 -7 6 C-6.814375 5.38125 -6.62875 4.7625 -6.4375 4.125 C-5.76313824 1.95839822 -5.76313824 1.95839822 -7 0 C-7.99 -0.33 -8.98 -0.66 -10 -1 C-5.92224809 -1.9267618 -3.57818963 -2.33958553 0 0 Z " fill="#818181" transform="translate(173,65)"/>
<path d="M0 0 C0.99 0 1.98 0 3 0 C4.125 5.75 4.125 5.75 3 8 C2.34 8 1.68 8 1 8 C0.67 8.99 0.34 9.98 0 11 C-0.66 11 -1.32 11 -2 11 C-2.33 8.36 -2.66 5.72 -3 3 C-2.34 3 -1.68 3 -1 3 C-0.67 2.01 -0.34 1.02 0 0 Z M1 5 C2 7 2 7 2 7 Z " fill="#7B7B7B" transform="translate(154,61)"/>
<path d="M0 0 C0.66 0 1.32 0 2 0 C2 2.31 2 4.62 2 7 C2.66 6.67 3.32 6.34 4 6 C3.67 7.65 3.34 9.3 3 11 C1.35 11 -0.3 11 -2 11 C-1.85957123 9.35369672 -1.71250671 7.70795821 -1.5625 6.0625 C-1.48128906 5.14597656 -1.40007812 4.22945313 -1.31640625 3.28515625 C-1 1 -1 1 0 0 Z " fill="#959595" transform="translate(217,61)"/>
<path d="M0 0 C1.32 0 2.64 0 4 0 C4 1.65 4 3.3 4 5 C3.01 5.495 3.01 5.495 2 6 C2 6.66 2 7.32 2 8 C0.0625 7.6875 0.0625 7.6875 -2 7 C-2.33 6.01 -2.66 5.02 -3 4 C-1.8125 1.8125 -1.8125 1.8125 0 0 Z " fill="#676767" transform="translate(232,64)"/>
<path d="M0 0 C1.32 0 2.64 0 4 0 C3.47731534 2.76276177 2.89130413 5.3260876 2 8 C0.0625 7.6875 0.0625 7.6875 -2 7 C-2.33 6.01 -2.66 5.02 -3 4 C-1.8125 1.8125 -1.8125 1.8125 0 0 Z " fill="#656565" transform="translate(287,64)"/>
<path d="M0 0 C0.33 0 0.66 0 1 0 C1.22786458 1.98567708 1.45572917 3.97135417 1.68359375 5.95703125 C1.97170735 8.19396393 1.97170735 8.19396393 3 11 C4.65 11.33 6.3 11.66 8 12 C8 12.33 8 12.66 8 13 C0.125 12.125 0.125 12.125 -1 11 C-1.09823937 9.33570949 -1.12973631 7.66718069 -1.125 6 C-1.12757813 5.0925 -1.13015625 4.185 -1.1328125 3.25 C-1 1 -1 1 0 0 Z " fill="#0D0D0D" transform="translate(254,38)"/>
<path d="M0 0 C-0.99 0.66 -1.98 1.32 -3 2 C-2.34 2.66 -1.68 3.32 -1 4 C-1.78375 4.12375 -2.5675 4.2475 -3.375 4.375 C-6.14057822 4.79117993 -6.14057822 4.79117993 -8 7 C-8.33 6.34 -8.66 5.68 -9 5 C-9.66 5 -10.32 5 -11 5 C-8.45499142 -0.63537615 -5.97208347 -0.11059414 0 0 Z " fill="#6C6C6C" transform="translate(245,32)"/>
<path d="M0 0 C3.96 0 7.92 0 12 0 C12 0.66 12 1.32 12 2 C8.7 2 5.4 2 2 2 C1.67 4.64 1.34 7.28 1 10 C0.67 10 0.34 10 0 10 C0 6.7 0 3.4 0 0 Z " fill="#020202" transform="translate(167,26)"/>
<path d="M0 0 C0.99 0 1.98 0 3 0 C2.67 4.95 2.34 9.9 2 15 C1.34 15 0.68 15 0 15 C0 10.05 0 5.1 0 0 Z " fill="#020202" transform="translate(203,36)"/>
<path d="M0 0 C2.09651475 3.45308311 2.09651475 3.45308311 1.625 6.125 C1.41875 6.74375 1.2125 7.3625 1 8 C1 8.66 1 9.32 1 10 C0.01 10 -0.98 10 -2 10 C-2 8.02 -2 6.04 -2 4 C-2.66 4 -3.32 4 -4 4 C-4 3.34 -4 2.68 -4 2 C-2.68 1.34 -1.36 0.68 0 0 Z " fill="#8A8A8A" transform="translate(228,62)"/>
<path d="M0 0 C0.66 0 1.32 0 2 0 C2 0.99 2 1.98 2 3 C2.99 3.33 3.98 3.66 5 4 C5.33 5.98 5.66 7.96 6 10 C4.68 10.33 3.36 10.66 2 11 C2 9.35 2 7.7 2 6 C1.67 6 1.34 6 1 6 C0.67 4.02 0.34 2.04 0 0 Z " fill="#979797" transform="translate(136,61)"/>
<path d="M0 0 C-0.99 0.33 -1.98 0.66 -3 1 C-2.67 1.99 -2.34 2.98 -2 4 C-3.65 4.66 -5.3 5.32 -7 6 C-7 5.34 -7 4.68 -7 4 C-8.32 3.34 -9.64 2.68 -11 2 C-10.38125 1.855625 -9.7625 1.71125 -9.125 1.5625 C-2.93085106 -0.07712766 -2.93085106 -0.07712766 0 0 Z " fill="#707070" transform="translate(225,32)"/>
<path d="M0 0 C2.125 0.9375 2.125 0.9375 4 2 C3.67 3.65 3.34 5.3 3 7 C1.35 7 -0.3 7 -2 7 C-2 5.02 -2 3.04 -2 1 C-1.34 0.67 -0.68 0.34 0 0 Z " fill="#898989" transform="translate(260,65)"/>
<path d="M0 0 C1.65 0 3.3 0 5 0 C4.15250816 2.54247553 3.37334617 4.71108972 2 7 C1.01 7.33 0.02 7.66 -1 8 C-0.67 5.36 -0.34 2.72 0 0 Z " fill="#8E8E8E" transform="translate(192,64)"/>
<path d="M0 0 C1.65 0 3.3 0 5 0 C5 2.64 5 5.28 5 8 C4.34 8 3.68 8 3 8 C3 6.35 3 4.7 3 3 C2.01 3.33 1.02 3.66 0 4 C0 2.68 0 1.36 0 0 Z " fill="#737373" transform="translate(262,64)"/>
<path d="M0 0 C0.66 0.33 1.32 0.66 2 1 C-2.43076923 6.78461538 -2.43076923 6.78461538 -5.3125 7.875 C-5.869375 7.91625 -6.42625 7.9575 -7 8 C-5.50902342 4.2047869 -3.24299151 2.38957269 0 0 Z " fill="#7B8A69" transform="translate(49,22)"/>
<path d="M0 0 C1.67542976 0.28604898 3.34385343 0.61781233 5 1 C4.34 3.31 3.68 5.62 3 8 C2.67 7.01 2.34 6.02 2 5 C1.67 4.34 1.34 3.68 1 3 C0.34 3.99 -0.32 4.98 -1 6 C-1.042721 4.33388095 -1.04063832 2.66617115 -1 1 C-0.67 0.67 -0.34 0.34 0 0 Z " fill="#9A9A9A" transform="translate(243,64)"/>
<path d="M0 0 C0.66 0 1.32 0 2 0 C2 1.32 2 2.64 2 4 C-2.455 5.485 -2.455 5.485 -7 7 C-6.67 5.68 -6.34 4.36 -6 3 C-4.35 3 -2.7 3 -1 3 C-0.67 2.01 -0.34 1.02 0 0 Z " fill="#939393" transform="translate(210,61)"/>
<path d="M0 0 C1.32 0.33 2.64 0.66 4 1 C3.67 2.32 3.34 3.64 3 5 C1.35 4.67 -0.3 4.34 -2 4 C-1.34 2.68 -0.68 1.36 0 0 Z " fill="#717171" transform="translate(275,25)"/>
<path d="M0 0 C0.66 0.33 1.32 0.66 2 1 C-0.46153846 5.8 -0.46153846 5.8 -3.1875 6.8125 C-3.785625 6.874375 -4.38375 6.93625 -5 7 C-4.60196439 4.11424181 -4.20990931 3.17810487 -1.9375 1.25 C-1.298125 0.8375 -0.65875 0.425 0 0 Z " fill="#6A7C55" transform="translate(83,22)"/>
<path d="M0 0 C4.33094958 0 6.27034861 0.96564469 10 3 C10 3.33 10 3.66 10 4 C7.03 4 4.06 4 1 4 C0.67 2.68 0.34 1.36 0 0 Z " fill="#919191" transform="translate(201,68)"/>
<path d="M0 0 C2.64 0 5.28 0 8 0 C8 0.66 8 1.32 8 2 C6.35 2 4.7 2 3 2 C3 2.66 3 3.32 3 4 C2.01 4 1.02 4 0 4 C0 2.68 0 1.36 0 0 Z " fill="#4F4F4F" transform="translate(283,33)"/>
<path d="M0 0 C0.99 0.33 1.98 0.66 3 1 C3 2.98 3 4.96 3 7 C1.68 7 0.36 7 -1 7 C-0.67 4.69 -0.34 2.38 0 0 Z " fill="#5A5A5A" transform="translate(163,65)"/>
<path d="M0 0 C0.66 0 1.32 0 2 0 C2 0.99 2 1.98 2 3 C2.66 3 3.32 3 4 3 C4.33 2.01 4.66 1.02 5 0 C5.33 1.65 5.66 3.3 6 5 C4.35 5 2.7 5 1 5 C0.67 3.35 0.34 1.7 0 0 Z " fill="#8C8C8C" transform="translate(130,67)"/>
<path d="M0 0 C0 0.66 0 1.32 0 2 C-0.66 2 -1.32 2 -2 2 C-2.33 2.66 -2.66 3.32 -3 4 C-4.32 3.34 -5.64 2.68 -7 2 C-7 1.34 -7 0.68 -7 0 C-3.86650268 -1.04449911 -3.01031744 -0.93423645 0 0 Z " fill="#949494" transform="translate(189,64)"/>
<path d="M0 0 C0.3403125 0.928125 0.3403125 0.928125 0.6875 1.875 C2.37929835 4.61410209 3.99244161 5.05024472 7 6 C7 6.33 7 6.66 7 7 C4.125 7.125 4.125 7.125 1 7 C0.34 6.34 -0.32 5.68 -1 5 C-0.625 2.375 -0.625 2.375 0 0 Z " fill="#010101" transform="translate(284,44)"/>
<path d="M0 0 C3.63 0 7.26 0 11 0 C8.80601826 2.19398174 8.02143183 2.6546935 5 3 C2.25 2.0625 2.25 2.0625 0 1 C0 0.67 0 0.34 0 0 Z " fill="#9BA68D" transform="translate(70,73)"/>
<path d="M0 0 C3 3.625 3 3.625 3 7 C1.68 7 0.36 7 -1 7 C-2 4 -2 4 -1.0625 1.8125 C-0.5365625 0.9153125 -0.5365625 0.9153125 0 0 Z " fill="#737373" transform="translate(185,65)"/>
<path d="M0 0 C2.4375 0.375 2.4375 0.375 5 1 C5.33 1.66 5.66 2.32 6 3 C5.01 4.485 5.01 4.485 4 6 C3.34 5.01 2.68 4.02 2 3 C1.01 2.67 0.02 2.34 -1 2 C-0.67 1.34 -0.34 0.68 0 0 Z " fill="#949494" transform="translate(270,64)"/>
<path d="M0 0 C1.32 0.33 2.64 0.66 4 1 C3.34 2.32 2.68 3.64 2 5 C0.68 4.34 -0.64 3.68 -2 3 C-1.34 2.01 -0.68 1.02 0 0 Z " fill="#5C5C5C" transform="translate(174,64)"/>
<path d="M0 0 C0.99 0 1.98 0 3 0 C4.125 5.75 4.125 5.75 3 8 C1 7 1 7 -0.125 3.9375 C-0.41375 2.968125 -0.7025 1.99875 -1 1 C-0.67 0.67 -0.34 0.34 0 0 Z " fill="#A1A1A1" transform="translate(154,61)"/>
<path d="M0 0 C1.32 1.32 2.64 2.64 4 4 C3.67 4.66 3.34 5.32 3 6 C1.68 5.67 0.36 5.34 -1 5 C-1 4.01 -1 3.02 -1 2 C-1.66 1.67 -2.32 1.34 -3 1 C-2.01 0.67 -1.02 0.34 0 0 Z " fill="#515151" transform="translate(146,28)"/>
</svg>
